name Walk2.mot
datacolumns 19
datarows 15
range 0.33500000 0.34900000
endheader

                time	   L_ground_force_vx	   L_ground_force_vy	   L_ground_force_vz	   L_ground_force_px	   L_ground_force_py	   L_ground_force_pz	   R_ground_force_vx	   R_ground_force_vy	   R_ground_force_vz	   R_ground_force_px	   R_ground_force_py	   R_ground_force_pz	   L_ground_torque_x	   L_ground_torque_y	   L_ground_torque_z	   R_ground_torque_x	   R_ground_torque_y	   R_ground_torque_z	
          0.33500000	         -7.41946853	         65.07134530	         -0.27415293	         -0.14670159	          0.00000000	         -0.00940207	         -0.00000000	          0.00000000	          0.00000000	          0.00000000	          0.00000000	          0.00000000	          0.00000000	          0.06682549	          0.00000000	          0.00000000	          0.00000000	          0.00000000	
          0.33600000	         -8.14095483	         70.82585123	         -0.38507612	         -0.15559351	          0.00000000	         -0.01003029	         -0.00000000	          0.00000000	          0.00000000	          0.00000000	          0.00000000	          0.00000000	          0.00000000	          0.07102801	          0.00000000	          0.00000000	          0.00000000	          0.00000000	
          0.33700000	         -8.89586385	         76.82259049	         -0.50471652	         -0.16466913	          0.00000000	         -0.01067547	         -0.00000000	          0.00000000	          0.00000000	          0.00000000	          0.00000000	          0.00000000	          0.00000000	          0.07532770	          0.00000000	          0.00000000	          0.00000000	          0.00000000	
          0.33800000	         -9.68418372	         83.05930663	         -0.63339007	         -0.17390803	          0.00000000	         -0.01133652	         -0.00000000	          0.00000000	          0.00000000	          0.00000000	          0.00000000	          0.00000000	          0.00000000	          0.07971586	          0.00000000	          0.00000000	          0.00000000	          0.00000000	
          0.33900000	        -10.50576344	         89.53254245	         -0.77140477	         -0.18328723	          0.00000000	         -0.01201217	         -0.00000000	          0.00000000	          0.00000000	          0.00000000	          0.00000000	          0.00000000	          0.00000000	          0.08418256	          0.00000000	          0.00000000	          0.00000000	          0.00000000	
          0.34000000	        -11.36030063	         96.23754267	         -0.91905866	         -0.19278103	          0.00000000	         -0.01270100	         -0.00000000	          0.00000000	          0.00000000	          0.00000000	          0.00000000	          0.00000000	          0.00000000	          0.08871666	          0.00000000	          0.00000000	          0.00000000	          0.00000000	
          0.34100000	        -12.24732871	        103.16815295	         -1.07663767	         -0.20236087	          0.00000000	         -0.01340139	         -0.00000000	          0.00000000	          0.00000000	          0.00000000	          0.00000000	          0.00000000	          0.00000000	          0.09330570	          0.00000000	          0.00000000	          0.00000000	          0.00000000	
          0.34200000	        -13.16620356	        110.31671533	         -1.24441330	         -0.21199520	          0.00000000	         -0.01411151	         -0.00000000	          0.00000000	          0.00000000	          0.00000000	          0.00000000	          0.00000000	          0.00000000	          0.09793584	          0.00000000	          0.00000000	          0.00000000	          0.00000000	
          0.34300000	        -14.11609742	        117.67397656	         -1.42263913	         -0.22164965	          0.00000000	         -0.01482935	         -0.00000000	          0.00000000	          0.00000000	          0.00000000	          0.00000000	          0.00000000	          0.00000000	          0.10259204	          0.00000000	          0.00000000	          0.00000000	          0.00000000	
          0.34400000	        -15.09602001	        125.22905502	         -1.61154322	         -0.23128855	          0.00000000	         -0.01555271	         -0.00000000	          0.00000000	          0.00000000	          0.00000000	          0.00000000	          0.00000000	          0.00000000	          0.10725923	          0.00000000	          0.00000000	          0.00000000	          0.00000000	
          0.34500000	        -16.10487247	        132.96949141	         -1.81131494	         -0.24087705	          0.00000000	         -0.01627930	         -0.00000000	          0.00000000	          0.00000000	          0.00000000	          0.00000000	          0.00000000	          0.00000000	          0.11192419	          0.00000000	          0.00000000	          0.00000000	          0.00000000	
          0.34600000	        -17.14151330	        140.88135850	         -2.02208782	         -0.25038268	          0.00000000	         -0.01700679	         -0.00000000	          0.00000000	          0.00000000	          0.00000000	          0.00000000	          0.00000000	          0.00000000	          0.11657737	          0.00000000	          0.00000000	          0.00000000	          0.00000000	
          0.34700000	        -18.20482093	        148.94941309	         -2.24391995	         -0.25977570	          0.00000000	         -0.01773295	         -0.00000000	          0.00000000	          0.00000000	          0.00000000	          0.00000000	          0.00000000	          0.00000000	          0.12121394	          0.00000000	          0.00000000	          0.00000000	          0.00000000	
          0.34800000	        -19.29375386	        157.15730120	         -2.47677166	         -0.26902905	          0.00000000	         -0.01845560	         -0.00000000	          0.00000000	          0.00000000	          0.00000000	          0.00000000	         -0.00000000	          0.00000000	          0.12583457	          0.00000000	          0.00000000	          0.00000000	          0.00000000	
          0.34900000	        -20.40740745	        165.48781828	         -2.72048083	         -0.27811829	          0.00000000	         -0.01917274	         -0.00000000	          0.00000000	          0.00000000	          0.00000000	          0.00000000	         -0.00000000	          0.00000000	          0.13044595	          0.00000000	          0.00000000	          0.00000000	          0.00000000	
